<?xml version="1.0" encoding="utf-8"?>
<!-- Generator: Adobe Illustrator 21.0.0, SVG Export Plug-In . SVG Version: 6.00 Build 0)  -->
<svg version="1.1" id="Layer_1" xmlns="http://www.w3.org/2000/svg" xmlns:xlink="http://www.w3.org/1999/xlink" x="0px" y="0px"
	 viewBox="0 0 23 17" style="enable-background:new 0 0 23 17;" xml:space="preserve">
<style type="text/css">
	.st0{fill:#FFFFFF;}
</style>
<g>
	<path class="st0" d="M-22.7,12.3h-11.1c-0.8,0-1.5-0.7-1.5-1.5c0-0.8,0.7-1.5,1.5-1.5h11.1c0.8,0,1.5,0.7,1.5,1.5
		C-21.2,11.6-21.9,12.3-22.7,12.3z M-33.7,10.3c-0.3,0-0.5,0.2-0.5,0.5c0,0.3,0.2,0.5,0.5,0.5h11.1c0.3,0,0.5-0.2,0.5-0.5
		c0-0.3-0.2-0.5-0.5-0.5H-33.7z"/>
</g>
<path class="st0" d="M-14.1,7.6l0-0.1c0-0.1-1-2.1-1.8-2.9c-1.3-1.3-2.8-1.8-4.5-2.2l-1.9-0.5l-3.6-5.1c-0.1-0.2-0.3-0.3-0.5-0.4
	l-1-0.4c-0.1-0.1-0.3-0.1-0.5,0c-0.2,0-0.3,0.1-0.4,0.2c-0.1,0.1-0.2,0.2-0.2,0.4c0,0.2,0,0.3,0,0.5l1.2,3.5l-4.1-1
	c-0.8-0.2-1.5-0.7-1.9-1.4l-1.2-1.9c-0.1-0.2-0.3-0.3-0.5-0.4c-0.2-0.1-0.4-0.1-0.5-0.1c-0.2,0-0.4,0.1-0.5,0.2
	c-0.2,0.1-0.3,0.2-0.4,0.4c-0.1,0.2-0.1,0.4-0.1,0.5l0.1,3.4c0,0.4,0.1,0.7,0.3,1c0.2,0.3,0.5,0.5,0.8,0.7l6.6,2.7l-2.2,1.4
	C-30.9,6-30.9,6-31,6.1c-0.1,0.1-0.1,0.2-0.1,0.3c0,0.1,0,0.2,0,0.3c0,0.1,0.1,0.2,0.2,0.3l0.2,0.2c0.2,0.2,0.4,0.3,0.7,0.4
	c0.2,0,0.3,0.1,0.5,0.1c0.1,0,0.3,0,0.4,0l5.1-1.3l7.3,3c0.3,0.1,0.7,0.2,1,0.2c0.3,0,0.6-0.1,0.9-0.2c0.4-0.2,0.7-0.6,0.8-1.1
	C-14.1,8.1-14.1,7.8-14.1,7.6z M-29.4,6.7c-0.1,0-0.2,0-0.3,0c-0.1,0-0.2-0.1-0.3-0.1l1.6-1l1.4,0.6L-29.4,6.7z M-15.1,8.1
	L-15.1,8.1c0,0.2-0.1,0.3-0.3,0.4c-0.2,0.1-0.6,0.1-1,0l-17.2-7l-1.2-0.5c-0.2-0.1-0.3-0.2-0.4-0.3c-0.1-0.1-0.1-0.3-0.2-0.5
	l-0.1-3.4l0.1-0.1l0,0l1.3,2c0.6,0.9,1.4,1.6,2.6,1.9l4.9,1.3l0.2,0l0.3-0.1l0.2-0.2l0.1-0.3l-1.5-4.2l0.7,0.3l3.7,5.2l0.2,0.2
	l2.2,0.5c1.5,0.4,2.9,0.8,4,2c0.7,0.7,1.5,2.2,1.6,2.6C-15.1,7.9-15.1,8-15.1,8.1z"/>
</svg>
